PathFileType	4	(X/Y/Z)	6_coords_data.trc
DataRate	CameraRate	NumFrames	NumMarkers	Units	OrigDataRate	OrigDataStartFrame	OrigNumFrames
30.0	30.0	8	21	m	30.0	1	71
Frame#	Time	THUMB_TIP	THUMB_IP	THUMB_MCP	THUMB_CMC	INDEX_TIP	INDEX_DIP	INDEX_PIP	INDEX_MCP	MIDDLE_TIP	MIDDLE_DIP	MIDDLE_PIP	MIDDLE_MCP	RING_TIP	RING_DIP	RING_PIP	RING_MCP	PINKY_TIP	PINKY_DIP	PINKY_PIP	PINKY_MCP	WRIST
X1	Y1	Z1	X2	Y2	Z2	X3	Y3	Z3	X4	Y4	Z4	X5	Y5	Z5	X6	Y6	Z6	X7	Y7	Z7	X8	Y8	Z8	X9	Y9	Z9	X10	Y10	Z10	X11	Y11	Z11	X12	Y12	Z12	X13	Y13	Z13	X14	Y14	Z14	X15	Y15	Z15	X16	Y16	Z16	X17	Y17	Z17	X18	Y18	Z18	X19	Y19	Z19	X20	Y20	Z20	X21	Y21	Z21
0	-2.749317978547796e-18	0.5288946334415571	-0.029103175507047885	-0.11054569699905237	0.5132759261541744	-0.025523149893404984	-0.12701504426227817	0.4837106025074561	-0.018280206756973505	-0.1205149356180148	0.4685217146245707	-0.02747120255631641	-0.07959167473746426	0.5620105272826222	0.05903912790614041	-0.15582645565535613	0.5480550906956404	0.05122253064641613	-0.14733254036580912	0.5291810653168354	0.041425399529094964	-0.13392369176235908	0.4978569253843773	0.030179439661602192	-0.1073537324445405	0.5001711865977023	-0.027999194158023544	-0.10595503343694357	0.5129757591334139	-0.01605032019298258	-0.11056668532593855	0.5278840990284042	0.00899172163600559	-0.11034967700662768	0.5098813063170213	0.036794940931018205	-0.0803658751725636	0.5138992248075597	-0.032555208500973154	-0.09973996056861212	0.5276157130321809	-0.020856595984654502	-0.09976035607945832	0.540945706739582	-0.0006741495053005364	-0.09383076074177638	0.5262626794693672	0.02339394030143227	-0.06485048128768583	0.6040733897399728	0.012328206241002171	-0.07053241058032889	0.587941763573197	0.007930798123487182	-0.06686724495468416	0.5678830620611846	0.003999826375859494	-0.062070582180281886	0.5325814681383989	-0.000757564503473307	-0.056409473672931254	0.4622830810018609	-0.023011742144276925	-0.051989820119430985
1	0.03333333333333339	0.529582559278591	-0.029000822622117894	-0.11032035643132393	0.514053015067716	-0.02546959797415327	-0.1268842843799744	0.48443784430220116	-0.01842589567288	-0.12039214155803668	0.4687889332445475	-0.027258828571445015	-0.07956346439211448	0.56232198448121	0.05812047078991478	-0.15651011674607235	0.5482407717669543	0.050600076775977665	-0.14795657231285514	0.5293251360776133	0.04093227598493432	-0.1345125332124643	0.49824827314211306	0.029530126435233672	-0.10771970451270957	0.5007964741017858	-0.02876412555626895	-0.1066607950621159	0.513610588991784	-0.016766541240594734	-0.11111685051219905	0.5285459982601313	0.008260070210946657	-0.11122556684286211	0.5104365084415202	0.03594467976177096	-0.08119630289037683	0.5143657037267438	-0.03266984363007053	-0.10031740489283464	0.5280157197893505	-0.020893774629466844	-0.10028190301117335	0.5413837240511522	-0.0007379598727120795	-0.09434729497459277	0.5263529436313827	0.023121028511734476	-0.0653723895003116	0.6041314560683315	0.01211786103166368	-0.07111845008851025	0.5879663531747121	0.007575147523510295	-0.06779381440598164	0.5678411962301528	0.0036501312387181573	-0.06327891417220366	0.5326003077164758	-0.0009779293648241039	-0.05715157520520192	0.4622830810018609	-0.023011742144276925	-0.051989820119430985
2	0.06666666666666676	0.5301011530412056	-0.028994840023802038	-0.11014791980228611	0.514629278202624	-0.025503425791467027	-0.12677413752122374	0.4849806004413999	-0.018591418258109282	-0.12029339228090624	0.468978032398883	-0.02712577334716859	-0.07953836069880005	0.5625595534955282	0.05726990878571059	-0.15711384197601097	0.5483842658735528	0.05000557647390247	-0.14849463685617015	0.529438920490303	0.040466100194541776	-0.1350008563027119	0.49855116396722077	0.029005084721283825	-0.10801516166105884	0.5012564247075715	-0.02938156507376477	-0.10718374520186308	0.5140896269588167	-0.01735869837624937	-0.11151498017036904	0.5290493880869909	0.007650860840519136	-0.1118851757550533	0.510869716397378	0.03526587156008232	-0.08183424163951697	0.5147179127885501	-0.03280368669245559	-0.10074688151862732	0.5283174745356936	-0.02096963833636989	-0.10066191216263953	0.5417221513256881	-0.0008375412629458845	-0.09472951917312705	0.5264393163806667	0.022882585734560923	-0.06577245845789942	0.6041734044090233	0.011879658474243882	-0.07155791031483077	0.5879869071450926	0.007233754725435859	-0.06848986783116534	0.5678123651346263	0.003324421519733889	-0.06418673088764099	0.5326206231126502	-0.0011773593782293812	-0.057693756745891944	0.462283081001861	-0.023011742144276925	-0.051989820119430985
3	0.10000000000000014	0.5304763361357794	-0.029066208226477763	-0.11002898637652331	0.5150329437934691	-0.02560576296191608	-0.1266881265563899	0.48536454379192395	-0.01876594097788875	-0.12022106566483043	0.4691058802210726	-0.027056898800894347	-0.0795171852937035	0.562737311667123	0.05647852745643467	-0.15765223835065673	0.5484952117523417	0.049433015329527596	-0.1489618212785599	0.5295300570022841	0.040022223486430586	-0.1354056516428454	0.49877957270764384	0.028587365644211382	-0.10825260695586203	0.5015765009201874	-0.029871067189418343	-0.10755300411872104	0.5144368878478168	-0.017843519352853443	-0.11178957597705202	0.5294202404717278	0.0071480778498720365	-0.11236295491307169	0.511203754171898	0.034737857264192984	-0.08231113933135953	0.5149714405721668	-0.03295669572464954	-0.1010509083358288	0.5285356244671379	-0.021082496344305035	-0.10092321988985381	0.5419763562472045	-0.0009718097587737562	-0.09499979239600848	0.5265250333727186	0.022671965022835416	-0.06606971514922366	0.6042116324112022	0.011614537582915974	-0.07188348052564791	0.5880110307712075	0.006902464123899166	-0.06899611663811483	0.5678007856308604	0.0030178088565107064	-0.06484070284155702	0.5326457967298698	-0.0013608741785169354	-0.058070374839902184	0.4622830810018609	-0.023011742144276925	-0.051989820119430985
4	0.13333333333333353	0.5307302863764418	-0.029200838722311162	-0.10996100089554106	0.5152892871941902	-0.025762903944844817	-0.12662701867783072	0.4856128527547703	-0.01894386706597495	-0.12017488918382435	0.469185135858988	-0.027040640439974784	-0.07949980616581298	0.5628672902431403	0.05573619850138323	-0.15813749988264486	0.5485813291193953	0.048876055120175566	-0.14937110110320784	0.5296045009621458	0.03959551296591857	-0.13574167105594281	0.49894618844992533	0.028260203940810413	-0.10844304953015277	0.501779740223269	-0.03025265433715496	-0.10779463276584661	0.5146735214105074	-0.018237742813303037	-0.1119650413513007	0.5296814235833892	0.006735170836315585	-0.11269030421254816	0.5114580550434062	0.03433874922593505	-0.08265533758789373	0.5151405686740081	-0.03312841911377229	-0.10124980573273729	0.5286833978396359	-0.02123030598673248	-0.1010864588417884	0.5421602362671775	-0.0011392920963388953	-0.09517833173973983	0.5266125923563159	0.022482471455309794	-0.06628189788483208	0.6042532323836323	0.01132302880623981	-0.0721217585480809	0.5880426963965238	0.006576947673431088	-0.06934809005825426	0.5678077600992157	0.002725358002870104	-0.0652830403594789	0.5326774249591338	-0.001533349261499728	-0.05831121015630175	0.462283081001861	-0.023011742144276925	-0.051989820119430985
5	0.1666666666666669	0.5308828677739613	-0.02938798338298232	-0.10993915020874107	0.5154218668200261	-0.02596467420231685	-0.12658962779216154	0.4857473047041395	-0.01912315067684689	-0.12015270934613242	0.46922580264613434	-0.0270676917444459	-0.07948559441314806	0.562960063752961	0.05503193132030548	-0.15858004473797999	0.5486490367287852	0.0483281739472774	-0.14973390758118194	0.5296670643985376	0.039180510481086395	-0.13602205823242414	0.49906277479227246	0.028006984645779665	-0.10859641563095368	0.5018874373354569	-0.030546481252568425	-0.10793251938734005	0.5148186276483241	-0.018557921345534023	-0.11206274316431103	0.5298535490884966	0.0063953507372791485	-0.11289634957560024	0.5116495911767328	0.0340459455333052	-0.0828928756971854	0.5152386211947474	-0.03331813380052784	-0.10136235324300297	0.5287729749665577	-0.021410802300197096	-0.10117071681453788	0.5422866003683928	-0.001338265598781363	-0.09528385195544703	0.5267039666027444	0.022307392776273804	-0.0664258340239281	0.6043014822734468	0.011005344521476945	-0.07229519579489008	0.5880833262363822	0.006252800881795806	-0.06957770730174939	0.5678326096672603	0.002442159249128495	-0.0655528460886794	0.5327159634431646	-0.0016994971465530417	-0.05844290296149324	0.462283081001861	-0.023011742144276925	-0.051989820119430985
6	0.20000000000000023	0.5309525864936354	-0.02961905047435265	-0.10995707712313191	0.5154532863787651	-0.02620320014822075	-0.12657344443065882	0.48578891527348667	-0.019304034075022347	-0.12015109327062778	0.46923626289949816	-0.02713009198336158	-0.07947367303530295	0.5630252377499939	0.05435416174866525	-0.15898904845431389	0.5487039408941328	0.047782773602704776	-0.15006059314550296	0.5297218443472442	0.038771549591975485	-0.13625886551766386	0.4991404648741147	0.027811185994842447	-0.10872187669646027	0.5019196519502227	-0.03077272415443566	-0.1079891118987269	0.5148899016842551	-0.01882043489564933	-0.11210194587436123	0.529955660670932	0.006111680510595852	-0.11300863078381929	0.5117936341977267	0.03383641791815306	-0.08304819602281166	0.5152782609805404	-0.03352495141491385	-0.10140633058188314	0.528815803036015	-0.021621594557855617	-0.10119407924552876	0.5423674910472748	-0.0015668626127764984	-0.09533409139089105	0.5268007607563034	0.022140016325042366	-0.0665177482315697	0.6043570645091005	0.010661496550668392	-0.07242357235477431	0.5881326244099404	0.00592561399602487	-0.06971452087918639	0.5678733506184198	0.0021633736986451657	-0.0656871902018048	0.5327611563418513	-0.0018638649886179026	-0.05849006489788511	0.462283081001861	-0.023011742144276925	-0.051989820119430985
7	0.23333333333333361	0.5309572578555726	-0.029886703643212997	-0.11000747253421694	0.5154056834250745	-0.0264719630860325	-0.1265751543171288	0.48575832475726	-0.019488081230477294	-0.12016582375539242	0.4692239934709135	-0.02722056945592266	-0.07946306568229994	0.5630718444963072	0.05369098388289362	-0.15937287609938328	0.5487512169987712	0.0472332625802413	-0.15036080288318665	0.5297725579433877	0.038362840545897	-0.1364634669373253	0.49918999517618357	0.027656317072103587	-0.10882810365592199	0.5018955758811702	-0.030951587832921512	-0.10798598760449463	0.5149041241560055	-0.01904160242109698	-0.11210058591677319	0.5300057719245161	0.005867058896589672	-0.11305367355000684	0.5119043544991176	0.033686863511100174	-0.08314472707237347	0.5152717288822094	-0.03374789991583671	-0.10139895107926522	0.5288228513929416	-0.021860238065279924	-0.10117406349413577	0.5424144436769964	-0.0018231480764924202	-0.09534623173907852	0.5269043200389385	0.02197363972605737	-0.06657350526047418	0.6044190459565995	0.0102914216240243	-0.0725251103074458	0.5881892163378221	0.005591030749211523	-0.06978668810306754	0.5679271864313875	0.001884267482301305	-0.0657219532834466	0.5328123246503624	-0.00203083329245346	-0.05847613248639294	0.4622830810018609	-0.023011742144276925	-0.051989820119430985
